<svg width="500" height="500" viewBox="0 0 500 500" fill="none" xmlns="http://www.w3.org/2000/svg">
<mask id="mask0_7_75" style="mask-type:alpha" maskUnits="userSpaceOnUse" x="0" y="0" width="500" height="500">
<circle cx="250" cy="250" r="250" fill="#3B82F6"/>
</mask>
<g mask="url(#mask0_7_75)">
<path d="M250 0C276.41 0 301.863 4.0947 325.76 11.6846C325.036 16.1847 324.691 20.7845 324.742 25.4414C324.824 33.4352 324.906 41.43 324.987 49.4238C325.13 63.394 325.271 77.3647 325.413 91.335C302.969 80.8555 277.92 75 251.5 75C155.126 75 77 152.902 77 249C77 345.098 155.126 423 251.5 423C314.767 423 370.17 389.426 400.769 339.172C434.496 339.229 465.439 311.509 468.867 266.028L479.85 151.507C492.818 181.731 500 215.027 500 250C500 388.071 388.071 500 250 500C111.929 500 0 388.071 0 250C0 111.929 111.929 0 250 0Z" fill="#3B82F6"/>
<path d="M242.768 124.208C242.434 125.083 242.112 125.972 241.801 126.876C234.142 149.529 226.482 172.181 218.823 194.834C216.263 202.407 213.702 209.981 211.142 217.554C206.474 231.391 207.612 246.897 213.886 260.494C220.184 274.101 231.103 284.684 244.659 290.082C258.216 295.48 273.422 295.299 287.349 289.746C297.855 285.542 306.979 278.53 313.453 269.633C323.758 282.895 334.062 296.158 344.367 309.421C347.283 313.02 350.32 316.271 353.446 319.188C330.957 352.27 293.017 374 250 374C180.964 374 125 318.036 125 249C125 182.392 177.098 127.954 242.768 124.208Z" fill="#D9D9D9"/>
<path d="M236.199 227.532C233.487 235.028 233.9 243.418 237.213 250.802C240.533 258.189 246.482 263.965 253.885 266.913C261.289 269.861 269.579 269.755 277.069 266.673C284.55 263.587 290.618 257.778 293.801 250.468C293.801 250.468 293.801 250.468 293.801 250.468C296.986 243.144 300.172 235.82 303.357 228.495C312.886 206.587 322.415 184.679 331.943 162.771L274.659 172.442C306.028 211.063 337.396 249.684 368.765 288.305C393.847 318.436 434.203 303.78 436.63 264.651C441.816 194.721 447.001 124.79 452.186 54.8598C452.777 46.8945 453.367 38.9293 453.958 30.964C454.866 18.7917 450.863 6.90968 442.606 -2.07773C434.362 -11.0646 422.54 -16.4206 409.964 -16.9581C397.388 -17.4955 385.153 -13.1675 376.172 -4.91677C367.178 3.33343 362.176 14.8306 362.042 27.036C362.042 27.036 362.042 27.036 362.042 27.036C361.951 35.0226 361.86 43.0092 361.769 50.9958C360.969 121.114 360.169 191.231 359.37 261.349L427.235 237.696C393.512 201.113 359.788 164.531 326.064 127.948C306.753 106.87 278.601 110.772 268.78 137.619C260.641 160.081 252.502 182.542 244.363 205.004C241.641 212.513 238.92 220.022 236.199 227.532Z" fill="#3B82F6"/>
</g>
</svg>
